# xmcd
#
# Track frame offsets:
#	150
#	22284
#	44218
#	67113
#	90853
#	112642
#	133836
#	156371
#	177759
#	199133
#	220768
#	243939
#	265226
#	286987
#	308414
#	331744
#
# Disc length: 4638 seconds
#
# Revision: 1
# Processed by: cddbd v1.4PL0 Copyright (c) Steve Scherf et al.
# Submitted via: audiograbber 1.82.01
#
DISCID=e2121c10
DTITLE=ARMIK - THE BEST
DYEAR=2003
DGENRE=Vocal
TTITLE0=Gypsy Flame
TTITLE1=Miracles
TTITLE2=Pure Paradise
TTITLE3=Rubia
TTITLE4=Fire Dance
TTITLE5=Malaga
TTITLE6=Ritmos Flamenco
TTITLE7=One Summer Night
TTITLE8=Dancing Shadows
TTITLE9=Heaven`s Touch
TTITLE10=Seduction
TTITLE11=Cordoba
TTITLE12=Marbella
TTITLE13=Reflection Of Paradise
TTITLE14=Veil Of Desire
TTITLE15=Meet Yoy In Heaven
EXTD=2003 The Maestro Records
EXTT0=
EXTT1=
EXTT2=
EXTT3=
EXTT4=
EXTT5=
EXTT6=
EXTT7=
EXTT8=
EXTT9=
EXTT10=
EXTT11=
EXTT12=
EXTT13=
EXTT14=
EXTT15=
PLAYORDER=
